HIERARCHY
ROOT Hips
{
	OFFSET 0.000000 0.000000 0.000000 
	CHANNELS 6 Xposition Yposition Zposition Zrotation Yrotation Xrotation
	JOINT LeftUpLeg
	{
		OFFSET 1.363060 -1.794630 0.839290 
		CHANNELS 3 Zrotation Yrotation Xrotation
		JOINT LeftLeg
		{
			OFFSET 2.448110 -6.726130 0.000000 
			CHANNELS 3 Zrotation Yrotation Xrotation
			JOINT LeftFoot
			{
				OFFSET 2.562200 -7.039590 0.000000 
				CHANNELS 3 Zrotation Yrotation Xrotation
				JOINT LeftToeBase
				{
					OFFSET 0.157640 -0.433110 2.322550 
					CHANNELS 3 Zrotation Yrotation Xrotation
					End Site
					{
						OFFSET 0.000000 0.000000 0.000000 
					}
				}
			}
		}
	}
	JOINT RightUpLeg
	{
		OFFSET -1.305520 -1.794630 0.839290 
		CHANNELS 3 Zrotation Yrotation Xrotation
		JOINT RightLeg
		{
			OFFSET -2.542530 -6.985550 0.000000 
			CHANNELS 3 Zrotation Yrotation Xrotation
			JOINT RightFoot
			{
				OFFSET -2.568260 -7.056230 0.000000 
				CHANNELS 3 Zrotation Yrotation Xrotation
				JOINT RightToeBase
				{
					OFFSET -0.164730 -0.452590 2.363150 
					CHANNELS 3 Zrotation Yrotation Xrotation
					End Site
					{
						OFFSET 0.000000 0.000000 0.000000 
					}
				}
			}
		}
	}
	JOINT Spine
	{
		OFFSET 0.028270 2.035590 -0.193380 
		CHANNELS 3 Zrotation Yrotation Xrotation
		JOINT Spine1
		{
			OFFSET 0.056720 2.048850 -0.042750 
			CHANNELS 3 Zrotation Yrotation Xrotation
			JOINT Neck1
			{
				OFFSET -0.054170 1.746240 0.172020 
				CHANNELS 3 Zrotation Yrotation Xrotation
				JOINT Head
				{
					OFFSET 0.104070 1.761360 -0.123970 
					CHANNELS 3 Zrotation Yrotation Xrotation
					End Site
					{
						OFFSET 0.000000 0.000000 0.000000 
					}
				}
			}
			JOINT LeftArm
			{
				OFFSET 3.362410 1.200890 -0.311210 
				CHANNELS 3 Zrotation Yrotation Xrotation
				JOINT LeftForeArm
				{
					OFFSET 4.983000 -0.000000 -0.000000 
					CHANNELS 3 Zrotation Yrotation Xrotation
					JOINT LeftHand
					{
						OFFSET 3.483560 -0.000000 -0.000000 
						CHANNELS 3 Zrotation Yrotation Xrotation
						JOINT LeftHandIndex1
						{
							OFFSET 0.715260 -0.000000 -0.000000 
							CHANNELS 3 Zrotation Yrotation Xrotation
							End Site
							{
								OFFSET 0.000000 0.000000 0.000000 
							}
						}
					}
				}
			}
			JOINT RightArm
			{
				OFFSET -3.136600 1.374050 -0.404650 
				CHANNELS 3 Zrotation Yrotation Xrotation
				JOINT RightForeArm
				{
					OFFSET -5.241900 -0.000000 -0.000000 
					CHANNELS 3 Zrotation Yrotation Xrotation
					JOINT RightHand
					{
						OFFSET -3.444170 -0.000000 -0.000000 
						CHANNELS 3 Zrotation Yrotation Xrotation
						JOINT RightHandIndex1
						{
							OFFSET -0.622530 -0.000000 -0.000000 
							CHANNELS 3 Zrotation Yrotation Xrotation
							End Site
							{
								OFFSET 0.000000 0.000000 0.000000 
							}
						}
					}
				}
			}
		}
	}
}
MOTION
Frames: 16
Frame Time: 0.041667
9.194717 15.994298 17.962131 161.222184 -1.299238 -135.826533 2.453056 -42.935590 -57.678828 8.003813 13.569297 40.745319 8.988464 5.693634 -51.055486 1.532000 -7.814400 -22.151700 -13.403841 24.566218 -86.038005 -7.206407 -20.015760 55.256581 -4.822338 1.145248 -52.112134 -5.345200 13.762300 -42.293600 -16.031447 -0.155132 26.689029 3.904847 -1.732595 4.013044 1.475428 -11.095310 14.970233 -0.968000 -5.343000 2.991600 -104.957465 6.511827 4.597403 20.719349 -19.088279 -2.207212 0.955751 -0.147812 6.759323 -7.125000 0.000000 0.000000 89.741424 5.007279 26.260232 -31.868006 41.630908 -8.437287 0.360484 -4.227385 -8.717296 7.125000 0.000000 0.000000 
9.281212 16.015946 17.940005 161.078864 -1.004892 -135.949778 1.945479 -42.778695 -57.390107 8.007350 13.655120 40.936460 8.853060 5.564569 -50.354430 1.208300 -6.973500 -19.636800 -13.319450 25.025224 -85.994822 -7.218867 -19.875983 55.148614 -4.806392 1.300298 -52.100977 -5.231400 13.639700 -41.813000 -15.731787 -0.071143 27.154319 3.755976 -1.738043 4.899494 1.550990 -10.968115 13.633298 -0.967100 -5.304100 2.849900 -105.251843 5.917895 4.191547 20.475515 -18.937521 -2.148405 0.935386 -0.157137 7.123980 -7.125000 0.000000 0.000000 90.324686 5.812251 25.689927 -31.473796 41.423460 -8.256374 0.375742 -4.243684 -8.626213 7.125000 0.000000 0.000000 
9.364450 16.038647 17.920656 161.166734 -0.871217 -136.109533 2.044476 -42.564683 -57.526551 8.003941 13.787668 41.601760 8.439409 4.446615 -50.437418 0.771400 -5.608200 -15.651700 -12.962402 25.700498 -85.789044 -7.205298 -19.642845 54.866809 -4.750027 1.634804 -52.120106 -4.884300 13.252300 -40.320500 -15.263527 -0.220916 27.244039 3.677356 -1.760060 4.691129 1.743085 -10.887623 13.656651 -0.905900 -5.260900 2.856500 -105.660733 5.959286 3.775487 20.339886 -18.825694 -2.114891 0.916296 -0.183302 7.414902 -7.125000 0.000000 0.000000 90.665207 5.925505 25.419637 -31.268092 41.268114 -8.150224 0.289675 -4.234317 -8.425951 7.125000 0.000000 0.000000 
9.442229 16.061253 17.907054 161.362573 -0.837222 -136.173017 2.434276 -42.003405 -58.131177 8.021419 14.039495 42.622283 8.064766 3.489586 -50.575329 0.983900 -6.313800 -17.697700 -12.539239 26.340102 -85.641559 -7.210556 -19.430537 54.583142 -4.719581 1.794881 -52.041265 -4.626600 12.950600 -39.183700 -14.849351 -0.283886 27.519812 3.391153 -1.758633 4.409002 2.779768 -11.301715 15.137462 -0.817600 -5.360300 3.114600 -105.874719 5.891177 3.807585 20.185781 -18.690850 -2.079945 0.902818 -0.194638 7.674888 -7.125000 0.000000 0.000000 91.128018 5.936165 25.085652 -31.212469 41.339031 -8.169006 -0.005654 -4.134111 -8.489038 7.125000 0.000000 0.000000 
9.513781 16.083954 17.895368 161.509056 -0.791261 -136.143601 2.668351 -41.276298 -58.861914 8.110154 14.419660 43.838357 7.956936 3.380081 -50.599001 1.519100 -7.782900 -22.056500 -12.164797 26.733210 -85.547530 -7.190801 -19.272898 54.249500 -4.676558 1.866127 -51.863362 -4.625800 12.949600 -39.180100 -14.573702 -0.321428 27.592990 3.301035 -1.748572 4.553422 1.918600 -10.948378 14.326824 -0.934300 -5.252000 3.003600 -106.068762 5.679330 4.033494 20.070408 -18.579677 -2.057026 0.894923 -0.193261 7.901321 -7.125000 0.000000 0.000000 91.643457 6.156793 24.568637 -31.029971 41.304064 -8.136990 -0.292256 -4.020910 -8.594608 7.125000 0.000000 0.000000 
9.582651 16.108667 17.883299 161.720466 -0.839366 -136.251401 2.813391 -40.722904 -59.446748 8.281749 14.874916 45.285503 8.045745 3.800820 -50.763478 1.454000 -7.621900 -21.571300 -11.545158 27.143301 -85.209150 -7.131717 -19.073667 53.702325 -4.599611 1.984500 -51.694140 -4.680600 13.014900 -39.424100 -13.936110 -0.507720 27.809217 3.076356 -1.779071 4.468206 1.751918 -10.796801 14.239666 -0.948000 -5.188900 3.009600 -106.371326 5.633125 4.088432 20.021171 -18.605002 -2.059369 0.882805 -0.216504 7.931799 -7.125000 0.000000 0.000000 92.123262 6.351190 24.104030 -30.766817 41.116042 -7.995079 -0.280257 -4.048324 -8.285553 7.125000 0.000000 0.000000 
9.650468 16.132996 17.872475 162.089719 -0.990190 -136.451996 3.112460 -40.185087 -60.062673 8.544279 15.430761 47.090471 8.294471 4.688506 -51.111663 1.204000 -6.961500 -19.601300 -10.713636 27.717340 -84.748532 -7.094680 -18.840417 53.157790 -4.530200 2.135992 -51.596300 -4.637300 12.963300 -39.231400 -12.978661 -0.718519 28.146481 2.750439 -1.781523 4.188346 1.817228 -10.803888 14.738555 -0.943900 -5.175800 3.094200 -106.635841 5.606430 4.309343 19.994645 -18.651001 -2.066546 0.864054 -0.229543 7.794420 -7.125000 0.000000 0.000000 92.462983 6.393312 23.798496 -30.689604 41.047694 -7.912761 -0.030593 -4.159411 -8.024108 7.125000 0.000000 0.000000 
9.714932 16.155889 17.862801 162.467400 -0.946004 -136.552133 3.335522 -39.510692 -60.701694 8.865997 16.039101 48.944872 8.675170 6.119821 -51.400962 1.284000 -7.180500 -20.251400 -10.122006 28.285313 -84.548992 -7.079394 -18.629613 52.781484 -4.477524 2.346401 -51.531443 -4.515300 12.816300 -38.684600 -12.218605 -0.824281 28.255182 2.569106 -1.735238 3.997089 1.277829 -10.758566 14.928752 -1.016100 -5.182700 3.113300 -106.901527 5.489946 4.575935 19.910248 -18.573524 -2.050985 0.845941 -0.221722 7.864117 -7.125000 0.000000 0.000000 92.679729 6.410348 23.659315 -30.600234 40.944967 -7.835403 0.143143 -4.235539 -8.242665 7.125000 0.000000 0.000000 
9.776140 16.180219 17.852648 162.828647 -0.750947 -136.575358 3.485893 -38.881042 -61.321884 9.196105 16.613149 50.745302 8.995556 7.464336 -51.594876 1.450400 -7.612700 -21.543600 -9.654780 28.783982 -84.513392 -7.074750 -18.444835 52.413004 -4.452208 2.386289 -51.328089 -4.562000 12.872900 -38.894500 -11.411961 -0.944702 28.326815 2.393341 -1.696590 3.950441 0.601376 -10.637196 15.041861 -1.087000 -5.168000 3.146000 -107.250309 5.394036 4.822697 19.875187 -18.600711 -2.055752 0.823497 -0.218849 7.905017 -7.125000 0.000000 0.000000 92.879837 6.486252 23.506117 -30.471084 40.816148 -7.752753 0.160671 -4.257288 -8.428197 7.125000 0.000000 0.000000 
9.840604 16.204166 17.842398 163.160734 -0.545401 -136.585919 3.707253 -38.316411 -61.945264 9.518793 17.137766 52.615187 9.106401 8.085125 -51.938579 1.237200 -7.053500 -19.874000 -9.059937 29.350970 -84.416430 -7.057665 -18.219659 51.968131 -4.381307 2.566021 -51.086226 -4.647100 12.975000 -39.275000 -11.310292 -0.788294 28.629668 1.891005 -1.665970 5.418650 1.355634 -10.531021 13.665692 -1.016900 -5.092700 3.020100 -107.208371 4.594354 5.127874 19.820647 -18.708132 -2.062152 0.819824 -0.210703 7.786057 -7.125000 0.000000 0.000000 93.651050 7.275215 23.138888 -30.279105 40.803411 -7.700472 0.149511 -4.256930 -8.248293 7.125000 0.000000 0.000000 
9.905355 16.226771 17.829276 163.552850 -0.332803 -136.731411 3.760704 -37.871609 -62.263998 9.810934 17.606859 54.352714 9.080512 8.178067 -52.392656 0.797800 -5.701000 -15.919400 -8.275289 30.070973 -84.039453 -7.000027 -17.909000 51.329948 -4.252430 2.984886 -50.915640 -4.581100 12.895900 -38.980100 -10.834714 -0.806797 28.267827 2.188206 -1.538688 4.346051 0.867730 -10.412973 14.494153 -1.037500 -5.052200 3.064400 -107.451297 5.077340 5.627656 19.877897 -18.658575 -2.075979 0.805790 -0.206516 7.934541 -7.125000 0.000000 0.000000 93.695660 6.419729 22.925499 -30.454516 40.878513 -7.776161 0.189500 -4.238727 -8.242551 7.125000 0.000000 0.000000 
9.957080 16.253112 17.819314 163.982939 -0.148755 -136.892622 3.719532 -37.499754 -62.582079 10.120800 18.052172 56.081454 9.050978 8.292585 -52.575872 0.646500 -5.143700 -14.318800 -7.397142 30.650439 -83.600236 -6.921767 -17.619859 50.601036 -4.108961 3.368600 -50.746245 -4.602800 12.922000 -39.077300 -10.239920 -0.829209 28.325996 2.088774 -1.446357 3.849899 0.170942 -10.301344 15.086316 -1.138800 -5.025000 3.142000 -107.638616 5.152391 6.096368 19.896059 -18.704892 -2.093228 0.791429 -0.218225 8.005427 -7.125000 0.000000 0.000000 93.913197 6.099228 22.407944 -30.316763 40.759335 -7.715469 0.245141 -4.210638 -7.961488 7.125000 0.000000 0.000000 
10.002195 16.281082 17.813184 164.185881 0.159871 -136.915941 3.594044 -37.196605 -63.076230 10.478642 18.500242 57.933740 9.014675 8.420887 -52.574829 0.658100 -5.188500 -14.447000 -6.820057 30.924891 -83.456503 -6.842962 -17.437366 50.120354 -3.937692 3.843863 -50.590821 -4.713800 13.054100 -39.571100 -10.914849 -0.567792 28.461466 1.709580 -1.409470 4.621231 0.507289 -10.360571 15.011374 -1.179700 -5.015600 3.191600 -107.524516 4.663725 6.478867 19.900945 -18.849566 -2.112743 0.788531 -0.229357 7.862328 -7.125000 0.000000 0.000000 94.632676 6.569878 22.099439 -30.307095 40.925149 -7.750958 0.260607 -4.234512 -7.787703 7.125000 0.000000 0.000000 
10.054399 16.304454 17.806095 164.408418 0.418854 -136.969735 3.475703 -36.978587 -63.571456 10.845365 18.917943 59.795352 8.936797 8.359394 -52.552852 0.599300 -4.955500 -13.781800 -6.346650 31.263066 -83.330693 -6.797318 -17.288226 49.832521 -3.779557 4.323376 -50.444982 -4.619000 12.941500 -39.149700 -10.875489 -0.509353 28.158585 1.743973 -1.330775 4.235177 0.670891 -10.417298 15.717765 -1.145000 -5.024200 3.264900 -107.650262 4.867311 6.905649 20.018413 -18.990330 -2.152392 0.768627 -0.226061 7.644960 -7.125000 0.000000 0.000000 94.899320 6.250458 21.671450 -30.125434 40.720685 -7.649908 0.282445 -4.208018 -8.105277 7.125000 0.000000 0.000000 
10.106507 16.325623 17.800061 164.898269 0.594924 -137.140985 3.335432 -36.669241 -63.977888 11.215014 19.318670 61.644427 8.824352 8.190303 -52.409599 0.527100 -4.652400 -12.919900 -5.597940 31.901454 -82.979925 -6.778241 -17.062237 49.382467 -3.651600 4.652158 -50.198048 -4.426300 12.707000 -38.281300 -9.502970 -0.743116 28.243042 1.428653 -1.296496 4.631015 0.987867 -10.091200 14.534504 -0.980600 -4.895500 3.089700 -108.007820 4.693907 6.945131 20.098625 -19.231460 -2.196917 0.746685 -0.204046 7.238443 -7.125000 0.000000 0.000000 94.917872 6.197076 21.930062 -30.290700 40.794565 -7.721157 0.338094 -4.206050 -8.391418 7.125000 0.000000 0.000000 
10.153155 16.347462 17.793547 165.476603 0.788052 -137.407077 3.022922 -36.416226 -64.177905 11.591765 19.694559 63.462589 8.675201 7.853886 -52.317774 0.454400 -4.324300 -11.990700 -4.573203 32.672385 -82.344414 -6.756070 -16.786537 48.795545 -3.496121 5.022362 -49.929587 -4.368500 12.635300 -38.018000 -7.913309 -1.182242 27.818482 1.003591 -1.320894 4.835888 1.232213 -9.682232 13.552485 -0.769400 -4.746500 2.874800 -108.544668 4.904345 6.490135 20.227707 -19.496847 -2.255049 0.737089 -0.174158 6.946899 -7.125000 0.000000 0.000000 94.746659 5.900306 22.455864 -30.354345 40.622208 -7.705192 0.374071 -4.203922 -8.643426 7.125000 0.000000 0.000000 
